<svg width="2927" height="2060" xmlns="http://www.w3.org/2000/svg" xmlns:xlink="http://www.w3.org/1999/xlink" overflow="hidden"><defs><clipPath id="clip0"><rect x="223" y="136" width="2927" height="2060"/></clipPath><clipPath id="clip1"><rect x="223" y="136" width="589" height="589"/></clipPath><clipPath id="clip2"><rect x="223" y="136" width="589" height="589"/></clipPath><clipPath id="clip3"><rect x="223" y="136" width="589" height="589"/></clipPath></defs><g clip-path="url(#clip0)" transform="translate(-223 -136)"><g clip-path="url(#clip1)"><g clip-path="url(#clip2)"><g clip-path="url(#clip3)"><path d="M223 136 812 136 812 725 223 725Z" fill="#FFFFFF"/><path d="M249.773 522.555 334.748 445.867" stroke="#000000" stroke-width="3.92667" fill="none" fill-rule="evenodd"/><path d="M345.941 443.476 336.09 397.386" stroke="#000000" stroke-width="3.92667" fill="none" fill-rule="evenodd"/><path d="M336.09 397.386 326.239 351.297" stroke="#FF0000" stroke-width="3.92667" fill="none" fill-rule="evenodd"/><path d="M323.555 448.26 313.704 402.171" stroke="#000000" stroke-width="3.92667" fill="none" fill-rule="evenodd"/><path d="M313.704 402.171 303.852 356.082" stroke="#FF0000" stroke-width="3.92667" fill="none" fill-rule="evenodd"/><path d="M334.748 445.867 380.327 460.62" stroke="#000000" stroke-width="3.92667" fill="none" fill-rule="evenodd"/><path d="M380.327 460.62 425.907 475.372" stroke="#FF0000" stroke-width="3.92667" fill="none" fill-rule="evenodd"/><path d="M461.39 465.104 495.006 434.766" stroke="#FF0000" stroke-width="3.92667" fill="none" fill-rule="evenodd"/><path d="M495.006 434.766 528.622 404.429" stroke="#000000" stroke-width="3.92667" fill="none" fill-rule="evenodd"/><path d="M528.622 404.429 504.699 292.495" stroke="#000000" stroke-width="3.92667" fill="none" fill-rule="evenodd"/><path d="M547.421 382.854 530.674 304.5" stroke="#000000" stroke-width="3.92667" fill="none" fill-rule="evenodd"/><path d="M637.522 439.677 528.622 404.429" stroke="#000000" stroke-width="3.92667" fill="none" fill-rule="evenodd"/><path d="M504.699 292.495 589.674 215.809" stroke="#000000" stroke-width="3.92667" fill="none" fill-rule="evenodd"/><path d="M589.674 215.809 698.572 251.057" stroke="#000000" stroke-width="3.92667" fill="none" fill-rule="evenodd"/><path d="M598.959 242.876 675.189 267.549" stroke="#000000" stroke-width="3.92667" fill="none" fill-rule="evenodd"/><path d="M698.572 251.057 722.497 362.991" stroke="#000000" stroke-width="3.92667" fill="none" fill-rule="evenodd"/><path d="M722.497 362.991 637.522 439.677" stroke="#000000" stroke-width="3.92667" fill="none" fill-rule="evenodd"/><path d="M694.414 357.497 634.931 411.179" stroke="#000000" stroke-width="3.92667" fill="none" fill-rule="evenodd"/><path d="M637.522 439.677 661.448 551.61" stroke="#000000" stroke-width="3.92667" fill="none" fill-rule="evenodd"/><path d="M661.448 551.61 627.831 581.948" stroke="#000000" stroke-width="3.92667" fill="none" fill-rule="evenodd"/><path d="M627.831 581.948 594.213 612.285" stroke="#FF0000" stroke-width="3.92667" fill="none" fill-rule="evenodd"/><path d="M657.923 562.501 703.502 577.253" stroke="#000000" stroke-width="3.92667" fill="none" fill-rule="evenodd"/><path d="M703.502 577.253 749.081 592.006" stroke="#FF0000" stroke-width="3.92667" fill="none" fill-rule="evenodd"/><path d="M664.972 540.72 710.551 555.472" stroke="#000000" stroke-width="3.92667" fill="none" fill-rule="evenodd"/><path d="M710.551 555.472 756.129 570.225" stroke="#FF0000" stroke-width="3.92667" fill="none" fill-rule="evenodd"/><path d="M295.943 334.026C295.943 328.837 297.225 324.792 299.789 321.893 302.353 318.993 306.031 317.543 310.823 317.543 315.615 317.543 319.293 318.993 321.857 321.893 324.421 324.792 325.703 328.837 325.703 334.026 325.703 339.276 324.406 343.396 321.811 346.387 319.217 349.348 315.554 350.828 310.823 350.828 306.062 350.828 302.383 349.348 299.789 346.387 297.225 343.426 295.943 339.306 295.943 334.026M310.823 347.166C314.12 347.166 316.653 346.068 318.424 343.87 320.224 341.641 321.125 338.36 321.125 334.026 321.125 329.783 320.224 326.593 318.424 324.457 316.653 322.29 314.12 321.206 310.823 321.206 307.527 321.206 304.978 322.274 303.177 324.411 301.407 326.547 300.522 329.752 300.522 334.026 300.522 338.391 301.407 341.672 303.177 343.87 304.978 346.068 307.527 347.166 310.823 347.166" fill="#FF0000"/><path d="M428.767 481.207C428.767 476.019 430.049 471.974 432.613 469.074 435.177 466.174 438.855 464.725 443.647 464.725 448.439 464.725 452.117 466.174 454.681 469.074 457.245 471.974 458.527 476.019 458.527 481.207 458.527 486.457 457.23 490.577 454.636 493.568 452.042 496.529 448.379 498.009 443.647 498.009 438.886 498.009 435.208 496.529 432.613 493.568 430.049 490.607 428.767 486.487 428.767 481.207M443.647 494.348C446.944 494.348 449.478 493.249 451.247 491.051 453.048 488.822 453.949 485.541 453.949 481.207 453.949 476.964 453.048 473.774 451.247 471.638 449.478 469.47 446.944 468.386 443.647 468.386 440.352 468.386 437.803 469.455 436.002 471.593 434.231 473.729 433.346 476.934 433.346 481.207 433.346 485.572 434.231 488.854 436.002 491.051 437.803 493.249 440.352 494.348 443.647 494.348" fill="#FF0000"/><path d="M533.939 612.271 538.333 612.271 538.333 626.054 554.907 626.054 554.907 612.271 559.303 612.271 559.303 644.688 554.907 644.688 554.907 629.716 538.333 629.716 538.333 644.688 533.939 644.688 533.939 612.271" fill="#FF0000"/><path d="M561.593 628.388C561.593 623.199 562.875 619.154 565.439 616.255 568.003 613.356 571.681 611.906 576.473 611.906 581.264 611.906 584.942 613.356 587.507 616.255 590.071 619.154 591.353 623.199 591.353 628.388 591.353 633.638 590.056 637.759 587.461 640.749 584.866 643.71 581.203 645.19 576.473 645.19 571.711 645.19 568.033 643.71 565.439 640.749 562.875 637.789 561.593 633.668 561.593 628.388M576.473 641.529C579.768 641.529 582.302 640.43 584.073 638.232 585.874 636.003 586.774 632.722 586.774 628.388 586.774 624.145 585.874 620.955 584.073 618.819 582.302 616.651 579.768 615.568 576.473 615.568 573.176 615.568 570.626 616.636 568.825 618.774 567.056 620.91 566.171 624.115 566.171 628.388 566.171 632.753 567.056 636.035 568.825 638.232 570.626 640.43 573.176 641.529 576.473 641.529" fill="#FF0000"/><path d="M755.468 586.95C755.468 581.76 756.75 577.716 759.314 574.817 761.877 571.916 765.555 570.466 770.348 570.466 775.14 570.466 778.818 571.916 781.382 574.817 783.946 577.716 785.228 581.76 785.228 586.95 785.228 592.2 783.93 596.32 781.335 599.311 778.74 602.272 775.078 603.752 770.348 603.752 765.586 603.752 761.908 602.272 759.314 599.311 756.75 596.351 755.468 592.23 755.468 586.95M770.348 600.089C773.644 600.089 776.177 598.99 777.948 596.792 779.749 594.565 780.649 591.284 780.649 586.95 780.649 582.707 779.749 579.517 777.948 577.381 776.177 575.213 773.644 574.13 770.348 574.13 767.051 574.13 764.502 575.198 762.701 577.334 760.931 579.471 760.046 582.677 760.046 586.95 760.046 591.314 760.931 594.595 762.701 596.792 764.502 598.99 767.051 600.089 770.348 600.089" fill="#FF0000"/></g></g></g><text font-family="Times New Roman,Times New Roman_MSFontService,sans-serif" font-weight="400" font-size="46" transform="matrix(1 0 0 1 255.979 566)">1<tspan font-size="46" x="16.0417" y="-120">2</tspan><tspan font-size="46" x="89.785" y="-233">3</tspan><tspan font-size="46" x="178.424" y="-17">4</tspan><tspan font-size="46" x="220.736" y="-164">5</tspan><tspan font-size="46" x="204.694" y="-267">6</tspan><tspan font-size="46" x="318.011" y="-370">7</tspan><tspan font-size="46" x="466.843" y="-312">8</tspan><tspan font-size="46" x="486.364" y="-196">9</tspan><tspan font-size="46" x="393.901" y="-107">10</tspan><tspan font-size="46" x="338.799" y="-17">11</tspan><tspan font-size="46" x="502.961" y="-17">12</tspan><tspan font-size="46" x="338.799" y="96">13</tspan><tspan font-size="46" x="218.528" y="102">14</tspan><tspan font-size="46" x="178.424" y="171">A</tspan><tspan font-size="46" x="211.653" y="171">spirin</tspan></text><path d="M877.5 428.208 1153.42 428.209 1153.42 432.792 877.5 432.792ZM1153.42 430.5 1144.25 416.75 1171.75 430.5 1144.25 444.25Z"/><path d="M1381.25 577.5C1359.85 577.5 1342.5 560.15 1342.5 538.747L1342.5 276.253C1342.5 254.851 1359.85 237.5 1381.25 237.5M1707.75 237.5C1729.15 237.5 1746.5 254.851 1746.5 276.253L1746.5 538.747C1746.5 560.15 1729.15 577.5 1707.75 577.5" stroke="#000000" stroke-width="4.58333" stroke-miterlimit="8" fill="none" fill-rule="evenodd"/><text font-family="Times New Roman,Times New Roman_MSFontService,sans-serif" font-weight="400" font-size="46" transform="matrix(1 0 0 1 1279.45 300)">1<tspan font-size="46" x="0" y="62">2</tspan><tspan font-size="46" x="0" y="124">3</tspan><tspan font-size="46" x="0" y="185">4</tspan><tspan font-size="46" x="117.719" y="-91">1</tspan><tspan font-size="46" x="185.34" y="-91">2</tspan><tspan font-size="46" x="252.961" y="-91">3</tspan><tspan font-size="46" x="320.581" y="-91">4</tspan><tspan font-size="46" x="388.202" y="-91">…</tspan></text><text font-family="Times New Roman,Times New Roman_MSFontService,sans-serif" font-weight="400" font-size="46" transform="matrix(6.12323e-17 1 -1 6.12323e-17 1292.75 518)">…</text><text font-family="Times New Roman,Times New Roman_MSFontService,sans-serif" font-weight="400" font-size="46" transform="matrix(1 0 0 1 1400.91 291)">1<tspan font-size="46" x="67.3173" y="56">1</tspan><tspan font-size="46" x="134.062" y="112">1</tspan><tspan font-size="46" x="201.667" y="178">1</tspan><tspan font-size="46" x="67.1665" y="0">1</tspan><tspan font-size="46" x="134.197" y="0">0</tspan><tspan font-size="46" x="201.025" y="0">0</tspan><tspan font-size="46" x="1.90271" y="56">1</tspan><tspan font-size="46" x="3.5022" y="112">0</tspan><tspan font-size="46" x="6.46729" y="178">0</tspan><tspan font-size="46" x="243.592" y="225">…</tspan><tspan font-size="46" x="134.677" y="56">1</tspan><tspan font-size="46" x="204.791" y="56">1</tspan><tspan font-size="46" x="66.6901" y="112">1</tspan><tspan font-size="46" x="66.1455" y="178">1</tspan><tspan font-size="46" x="202.476" y="112">0</tspan><tspan font-size="46" x="133.293" y="178">0</tspan><tspan font-size="46" x="-55.1085" y="446">Adjacency matrix</tspan></text><path d="M1967.25 579.5C1945.85 579.5 1928.5 562.15 1928.5 540.747L1928.5 278.253C1928.5 256.85 1945.85 239.5 1967.25 239.5M2294.75 239.5C2316.15 239.5 2333.5 256.85 2333.5 278.253L2333.5 540.747C2333.5 562.15 2316.15 579.5 2294.75 579.5" stroke="#000000" stroke-width="4.58333" stroke-miterlimit="8" fill="none" fill-rule="evenodd"/><text font-family="Times New Roman,Times New Roman_MSFontService,sans-serif" font-weight="400" font-size="46" transform="matrix(1 0 0 1 1866.01 301)">1<tspan font-size="46" x="0" y="62">2</tspan><tspan font-size="46" x="0" y="124">3</tspan><tspan font-size="46" x="0" y="185">4</tspan><tspan font-size="46" x="117.719" y="-91">C</tspan><tspan font-size="46" x="185.34" y="-91">H</tspan><tspan font-size="46" x="252.961" y="-91">O</tspan><tspan font-size="46" x="320.581" y="-91">N</tspan><tspan font-size="46" x="388.202" y="-91">…</tspan></text><text font-family="Times New Roman,Times New Roman_MSFontService,sans-serif" font-weight="400" font-size="46" transform="matrix(6.12323e-17 1 -1 6.12323e-17 1879.31 519)">…</text><text font-family="Times New Roman,Times New Roman_MSFontService,sans-serif" font-weight="400" font-size="46" transform="matrix(1 0 0 1 1987.47 292)">1<tspan font-size="46" x="67.3171" y="56">0</tspan><tspan font-size="46" x="134.062" y="113">1</tspan><tspan font-size="46" x="201.667" y="178">0</tspan><tspan font-size="46" x="67.1663" y="0">0</tspan><tspan font-size="46" x="134.197" y="0">0</tspan><tspan font-size="46" x="201.025" y="0">0</tspan><tspan font-size="46" x="1.90259" y="56">1</tspan><tspan font-size="46" x="3.50208" y="113">0</tspan><tspan font-size="46" x="6.46716" y="178">0</tspan><tspan font-size="46" x="243.592" y="225">…</tspan><tspan font-size="46" x="134.677" y="56">0</tspan><tspan font-size="46" x="204.791" y="56">0</tspan><tspan font-size="46" x="66.6899" y="113">0</tspan><tspan font-size="46" x="66.1455" y="178">0</tspan><tspan font-size="46" x="202.476" y="113">0</tspan><tspan font-size="46" x="133.293" y="178">1</tspan><tspan font-size="46" x="-58.2333" y="443">Atom feature matrix</tspan></text><path d="M2593.25 569.5C2571.85 569.5 2554.5 552.15 2554.5 530.747L2554.5 268.254C2554.5 246.851 2571.85 229.5 2593.25 229.5M2919.75 229.5C2941.15 229.5 2958.5 246.851 2958.5 268.254L2958.5 530.747C2958.5 552.15 2941.15 569.5 2919.75 569.5" stroke="#000000" stroke-width="4.58333" stroke-miterlimit="8" fill="none" fill-rule="evenodd"/><text font-family="Times New Roman,Times New Roman_MSFontService,sans-serif" font-weight="400" font-size="46" transform="matrix(1 0 0 1 2473.02 291)">1<tspan font-size="46" x="22.9165" y="0">-</tspan><tspan font-size="46" x="38.3853" y="0">2</tspan><tspan font-size="46" x="0" y="62">2</tspan><tspan font-size="46" x="22.9165" y="62">-</tspan><tspan font-size="46" x="38.3853" y="62">3</tspan><tspan font-size="46" x="0" y="124">2</tspan><tspan font-size="46" x="22.9165" y="124">-</tspan><tspan font-size="46" x="38.3853" y="124">4</tspan><tspan font-size="46" x="0" y="186">4</tspan><tspan font-size="46" x="22.9165" y="186">-</tspan><tspan font-size="46" x="38.3853" y="186">5</tspan><tspan font-size="46" x="136.053" y="-91">S</tspan><tspan font-size="46" x="203.673" y="-91">D</tspan><tspan font-size="46" x="271.294" y="-91">T</tspan><tspan font-size="46" x="338.915" y="-91">A</tspan><tspan font-size="46" x="406.535" y="-91">…</tspan></text><text font-family="Times New Roman,Times New Roman_MSFontService,sans-serif" font-weight="400" font-size="46" transform="matrix(6.12323e-17 1 -1 6.12323e-17 2504.65 509)">…</text><text font-family="Times New Roman,Times New Roman_MSFontService,sans-serif" font-weight="400" font-size="46" transform="matrix(1 0 0 1 2612.81 282)">1<tspan font-size="46" x="67.3174" y="56">1</tspan><tspan font-size="46" x="134.062" y="113">0</tspan><tspan font-size="46" x="201.667" y="178">0</tspan><tspan font-size="46" x="67.1665" y="0">0</tspan><tspan font-size="46" x="134.197" y="0">0</tspan><tspan font-size="46" x="201.025" y="0">0</tspan><tspan font-size="46" x="1.90283" y="56">0</tspan><tspan font-size="46" x="3.5022" y="113">1</tspan><tspan font-size="46" x="6.46729" y="178">1</tspan><tspan font-size="46" x="243.592" y="225">…</tspan><tspan font-size="46" x="134.677" y="56">0</tspan><tspan font-size="46" x="204.791" y="56">0</tspan><tspan font-size="46" x="66.6902" y="113">0</tspan><tspan font-size="46" x="66.1455" y="178">0</tspan><tspan font-size="46" x="202.476" y="113">0</tspan><tspan font-size="46" x="133.293" y="178">0</tspan><tspan font-size="46" x="-68.7932" y="453">Bond feature matrix</tspan></text><path d="M2.29155-0.0229808 4.51919 222.108-0.0639139 222.154-2.29155 0.0229808ZM2.22764 222.131 15.885 212.827 2.41148 240.463-11.6136 213.103Z" transform="matrix(-1 0 0 1 2121.91 763.5)"/><path d="M2315.54 1050.3 2445.46 1050.3 2445.46 1180.22 2315.54 1180.22Z" fill="#E9EBF5" fill-rule="evenodd"/><path d="M2445.46 1050.3 2575.38 1050.3 2575.38 1180.22 2445.46 1180.22Z" fill="#E9EBF5" fill-rule="evenodd"/><path d="M2575.38 1050.3 2705.3 1050.3 2705.3 1180.22 2575.38 1180.22Z" fill="#E9EBF5" fill-rule="evenodd"/><path d="M2705.3 1050.3 2835.22 1050.3 2835.22 1180.22 2705.3 1180.22Z" fill="#E9EBF5" fill-rule="evenodd"/><path d="M2315.54 1180.22 2445.46 1180.22 2445.46 1310.15 2315.54 1310.15Z" fill="#CFD5EA" fill-rule="evenodd"/><path d="M2445.46 1180.22 2575.38 1180.22 2575.38 1310.15 2445.46 1310.15Z" fill="#CFD5EA" fill-rule="evenodd"/><path d="M2575.38 1180.22 2705.3 1180.22 2705.3 1310.15 2575.38 1310.15Z" fill="#CFD5EA" fill-rule="evenodd"/><path d="M2705.3 1180.22 2835.22 1180.22 2835.22 1310.15 2705.3 1310.15Z" fill="#CFD5EA" fill-rule="evenodd"/><path d="M2315.54 1310.15 2445.46 1310.15 2445.46 1440.07 2315.54 1440.07Z" fill="#E9EBF5" fill-rule="evenodd"/><path d="M2445.46 1310.15 2575.38 1310.15 2575.38 1440.07 2445.46 1440.07Z" fill="#E9EBF5" fill-rule="evenodd"/><path d="M2575.38 1310.15 2705.3 1310.15 2705.3 1440.07 2575.38 1440.07Z" fill="#E9EBF5" fill-rule="evenodd"/><path d="M2705.3 1310.15 2835.22 1310.15 2835.22 1440.07 2705.3 1440.07Z" fill="#E9EBF5" fill-rule="evenodd"/><path d="M2315.54 1440.07 2445.46 1440.07 2445.46 1569.99 2315.54 1569.99Z" fill="#CFD5EA" fill-rule="evenodd"/><path d="M2445.46 1440.07 2575.38 1440.07 2575.38 1569.99 2445.46 1569.99Z" fill="#CFD5EA" fill-rule="evenodd"/><path d="M2575.38 1440.07 2705.3 1440.07 2705.3 1569.99 2575.38 1569.99Z" fill="#CFD5EA" fill-rule="evenodd"/><path d="M2705.3 1440.07 2835.22 1440.07 2835.22 1569.99 2705.3 1569.99Z" fill="#CFD5EA" fill-rule="evenodd"/><path d="M2445.46 1048.01 2445.46 1572.28" stroke="#000000" stroke-width="4.58333" stroke-linejoin="round" stroke-miterlimit="10" fill="none" fill-rule="evenodd"/><path d="M2575.38 1048.01 2575.38 1572.28" stroke="#000000" stroke-width="4.58333" stroke-linejoin="round" stroke-miterlimit="10" fill="none" fill-rule="evenodd"/><path d="M2705.3 1048.01 2705.3 1572.28" stroke="#000000" stroke-width="4.58333" stroke-linejoin="round" stroke-miterlimit="10" fill="none" fill-rule="evenodd"/><path d="M2313.25 1180.22 2837.52 1180.22" stroke="#000000" stroke-width="4.58333" stroke-linejoin="round" stroke-miterlimit="10" fill="none" fill-rule="evenodd"/><path d="M2313.25 1310.15 2837.52 1310.15" stroke="#000000" stroke-width="4.58333" stroke-linejoin="round" stroke-miterlimit="10" fill="none" fill-rule="evenodd"/><path d="M2313.25 1440.07 2837.52 1440.07" stroke="#000000" stroke-width="4.58333" stroke-linejoin="round" stroke-miterlimit="10" fill="none" fill-rule="evenodd"/><path d="M2315.54 1048.01 2315.54 1572.28" stroke="#000000" stroke-width="4.58333" stroke-linejoin="round" stroke-miterlimit="10" fill="none" fill-rule="evenodd"/><path d="M2835.22 1048.01 2835.22 1572.28" stroke="#000000" stroke-width="4.58333" stroke-linejoin="round" stroke-miterlimit="10" fill="none" fill-rule="evenodd"/><path d="M2313.25 1050.3 2837.52 1050.3" stroke="#000000" stroke-width="4.58333" stroke-linejoin="round" stroke-miterlimit="10" fill="none" fill-rule="evenodd"/><path d="M2313.25 1569.99 2837.52 1569.99" stroke="#000000" stroke-width="4.58333" stroke-linejoin="round" stroke-miterlimit="10" fill="none" fill-rule="evenodd"/><text font-family="Times New Roman,Times New Roman_MSFontService,sans-serif" font-weight="400" font-size="73" transform="matrix(1 0 0 1 2362.17 1142)">0<tspan font-size="73" x="129.921" y="0">1</tspan><tspan font-size="73" x="259.843" y="0">0</tspan><tspan font-size="73" x="389.764" y="0">0</tspan><tspan font-size="73" x="0" y="130">1</tspan><tspan font-size="73" x="129.921" y="130">0</tspan><tspan font-size="73" x="259.843" y="130">0</tspan><tspan font-size="73" x="389.764" y="130">0</tspan><tspan font-size="73" x="0" y="260">0</tspan><tspan font-size="73" x="129.921" y="260">0</tspan><tspan font-size="73" x="259.843" y="260">0</tspan><tspan font-size="73" x="389.764" y="260">0</tspan><tspan font-size="73" x="0" y="390">0</tspan><tspan font-size="73" x="129.921" y="390">0</tspan><tspan font-size="73" x="259.843" y="390">0</tspan><tspan font-size="73" x="389.764" y="390">0</tspan></text><path d="M2284.14 1080.4 2414.06 1080.4 2414.06 1210.32 2284.14 1210.32Z" fill="#E9EBF5" fill-rule="evenodd"/><path d="M2414.06 1080.4 2543.98 1080.4 2543.98 1210.32 2414.06 1210.32Z" fill="#E9EBF5" fill-rule="evenodd"/><path d="M2543.98 1080.4 2673.9 1080.4 2673.9 1210.32 2543.98 1210.32Z" fill="#E9EBF5" fill-rule="evenodd"/><path d="M2673.9 1080.4 2803.82 1080.4 2803.82 1210.32 2673.9 1210.32Z" fill="#E9EBF5" fill-rule="evenodd"/><path d="M2284.14 1210.32 2414.06 1210.32 2414.06 1340.24 2284.14 1340.24Z" fill="#CFD5EA" fill-rule="evenodd"/><path d="M2414.06 1210.32 2543.98 1210.32 2543.98 1340.24 2414.06 1340.24Z" fill="#CFD5EA" fill-rule="evenodd"/><path d="M2543.98 1210.32 2673.9 1210.32 2673.9 1340.24 2543.98 1340.24Z" fill="#CFD5EA" fill-rule="evenodd"/><path d="M2673.9 1210.32 2803.82 1210.32 2803.82 1340.24 2673.9 1340.24Z" fill="#CFD5EA" fill-rule="evenodd"/><path d="M2284.14 1340.24 2414.06 1340.24 2414.06 1470.16 2284.14 1470.16Z" fill="#E9EBF5" fill-rule="evenodd"/><path d="M2414.06 1340.24 2543.98 1340.24 2543.98 1470.16 2414.06 1470.16Z" fill="#E9EBF5" fill-rule="evenodd"/><path d="M2543.98 1340.24 2673.9 1340.24 2673.9 1470.16 2543.98 1470.16Z" fill="#E9EBF5" fill-rule="evenodd"/><path d="M2673.9 1340.24 2803.82 1340.24 2803.82 1470.16 2673.9 1470.16Z" fill="#E9EBF5" fill-rule="evenodd"/><path d="M2284.14 1470.16 2414.06 1470.16 2414.06 1600.08 2284.14 1600.08Z" fill="#CFD5EA" fill-rule="evenodd"/><path d="M2414.06 1470.16 2543.98 1470.16 2543.98 1600.08 2414.06 1600.08Z" fill="#CFD5EA" fill-rule="evenodd"/><path d="M2543.98 1470.16 2673.9 1470.16 2673.9 1600.08 2543.98 1600.08Z" fill="#CFD5EA" fill-rule="evenodd"/><path d="M2673.9 1470.16 2803.82 1470.16 2803.82 1600.08 2673.9 1600.08Z" fill="#CFD5EA" fill-rule="evenodd"/><path d="M2414.06 1078.11 2414.06 1602.38" stroke="#000000" stroke-width="4.58333" stroke-linejoin="round" stroke-miterlimit="10" fill="none" fill-rule="evenodd"/><path d="M2543.98 1078.11 2543.98 1602.38" stroke="#000000" stroke-width="4.58333" stroke-linejoin="round" stroke-miterlimit="10" fill="none" fill-rule="evenodd"/><path d="M2673.9 1078.11 2673.9 1602.38" stroke="#000000" stroke-width="4.58333" stroke-linejoin="round" stroke-miterlimit="10" fill="none" fill-rule="evenodd"/><path d="M2281.85 1210.32 2806.11 1210.32" stroke="#000000" stroke-width="4.58333" stroke-linejoin="round" stroke-miterlimit="10" fill="none" fill-rule="evenodd"/><path d="M2281.85 1340.24 2806.11 1340.24" stroke="#000000" stroke-width="4.58333" stroke-linejoin="round" stroke-miterlimit="10" fill="none" fill-rule="evenodd"/><path d="M2281.85 1470.16 2806.11 1470.16" stroke="#000000" stroke-width="4.58333" stroke-linejoin="round" stroke-miterlimit="10" fill="none" fill-rule="evenodd"/><path d="M2284.14 1078.11 2284.14 1602.38" stroke="#000000" stroke-width="4.58333" stroke-linejoin="round" stroke-miterlimit="10" fill="none" fill-rule="evenodd"/><path d="M2803.82 1078.11 2803.82 1602.38" stroke="#000000" stroke-width="4.58333" stroke-linejoin="round" stroke-miterlimit="10" fill="none" fill-rule="evenodd"/><path d="M2281.85 1080.4 2806.11 1080.4" stroke="#000000" stroke-width="4.58333" stroke-linejoin="round" stroke-miterlimit="10" fill="none" fill-rule="evenodd"/><path d="M2281.85 1600.08 2806.11 1600.08" stroke="#000000" stroke-width="4.58333" stroke-linejoin="round" stroke-miterlimit="10" fill="none" fill-rule="evenodd"/><text font-family="Times New Roman,Times New Roman_MSFontService,sans-serif" font-weight="400" font-size="73" transform="matrix(1 0 0 1 2330.76 1172)">0<tspan font-size="73" x="129.921" y="0">1</tspan><tspan font-size="73" x="259.843" y="0">0</tspan><tspan font-size="73" x="389.764" y="0">0</tspan><tspan font-size="73" x="0" y="130">1</tspan><tspan font-size="73" x="129.921" y="130">0</tspan><tspan font-size="73" x="259.843" y="130">0</tspan><tspan font-size="73" x="389.764" y="130">0</tspan><tspan font-size="73" x="0" y="260">0</tspan><tspan font-size="73" x="129.921" y="260">0</tspan><tspan font-size="73" x="259.843" y="260">0</tspan><tspan font-size="73" x="389.764" y="260">0</tspan><tspan font-size="73" x="0" y="390">0</tspan><tspan font-size="73" x="129.921" y="390">0</tspan><tspan font-size="73" x="259.843" y="390">0</tspan><tspan font-size="73" x="389.764" y="390">0</tspan></text><path d="M2246.39 1122.22 2376.31 1122.22 2376.31 1252.14 2246.39 1252.14Z" fill="#E9EBF5" fill-rule="evenodd"/><path d="M2376.31 1122.22 2506.23 1122.22 2506.23 1252.14 2376.31 1252.14Z" fill="#E9EBF5" fill-rule="evenodd"/><path d="M2506.23 1122.22 2636.15 1122.22 2636.15 1252.14 2506.23 1252.14Z" fill="#E9EBF5" fill-rule="evenodd"/><path d="M2636.15 1122.22 2766.07 1122.22 2766.07 1252.14 2636.15 1252.14Z" fill="#E9EBF5" fill-rule="evenodd"/><path d="M2246.39 1252.14 2376.31 1252.14 2376.31 1382.06 2246.39 1382.06Z" fill="#CFD5EA" fill-rule="evenodd"/><path d="M2376.31 1252.14 2506.23 1252.14 2506.23 1382.06 2376.31 1382.06Z" fill="#CFD5EA" fill-rule="evenodd"/><path d="M2506.23 1252.14 2636.15 1252.14 2636.15 1382.06 2506.23 1382.06Z" fill="#CFD5EA" fill-rule="evenodd"/><path d="M2636.15 1252.14 2766.07 1252.14 2766.07 1382.06 2636.15 1382.06Z" fill="#CFD5EA" fill-rule="evenodd"/><path d="M2246.39 1382.06 2376.31 1382.06 2376.31 1511.98 2246.39 1511.98Z" fill="#E9EBF5" fill-rule="evenodd"/><path d="M2376.31 1382.06 2506.23 1382.06 2506.23 1511.98 2376.31 1511.98Z" fill="#E9EBF5" fill-rule="evenodd"/><path d="M2506.23 1382.06 2636.15 1382.06 2636.15 1511.98 2506.23 1511.98Z" fill="#E9EBF5" fill-rule="evenodd"/><path d="M2636.15 1382.06 2766.07 1382.06 2766.07 1511.98 2636.15 1511.98Z" fill="#E9EBF5" fill-rule="evenodd"/><path d="M2246.39 1511.98 2376.31 1511.98 2376.31 1641.9 2246.39 1641.9Z" fill="#CFD5EA" fill-rule="evenodd"/><path d="M2376.31 1511.98 2506.23 1511.98 2506.23 1641.9 2376.31 1641.9Z" fill="#CFD5EA" fill-rule="evenodd"/><path d="M2506.23 1511.98 2636.15 1511.98 2636.15 1641.9 2506.23 1641.9Z" fill="#CFD5EA" fill-rule="evenodd"/><path d="M2636.15 1511.98 2766.07 1511.98 2766.07 1641.9 2636.15 1641.9Z" fill="#CFD5EA" fill-rule="evenodd"/><path d="M2376.31 1119.92 2376.31 1644.19" stroke="#000000" stroke-width="4.58333" stroke-linejoin="round" stroke-miterlimit="10" fill="none" fill-rule="evenodd"/><path d="M2506.23 1119.92 2506.23 1644.19" stroke="#000000" stroke-width="4.58333" stroke-linejoin="round" stroke-miterlimit="10" fill="none" fill-rule="evenodd"/><path d="M2636.15 1119.92 2636.15 1644.19" stroke="#000000" stroke-width="4.58333" stroke-linejoin="round" stroke-miterlimit="10" fill="none" fill-rule="evenodd"/><path d="M2244.1 1252.14 2768.37 1252.14" stroke="#000000" stroke-width="4.58333" stroke-linejoin="round" stroke-miterlimit="10" fill="none" fill-rule="evenodd"/><path d="M2244.1 1382.06 2768.37 1382.06" stroke="#000000" stroke-width="4.58333" stroke-linejoin="round" stroke-miterlimit="10" fill="none" fill-rule="evenodd"/><path d="M2244.1 1511.98 2768.37 1511.98" stroke="#000000" stroke-width="4.58333" stroke-linejoin="round" stroke-miterlimit="10" fill="none" fill-rule="evenodd"/><path d="M2246.39 1119.92 2246.39 1644.19" stroke="#000000" stroke-width="4.58333" stroke-linejoin="round" stroke-miterlimit="10" fill="none" fill-rule="evenodd"/><path d="M2766.07 1119.92 2766.07 1644.19" stroke="#000000" stroke-width="4.58333" stroke-linejoin="round" stroke-miterlimit="10" fill="none" fill-rule="evenodd"/><path d="M2244.1 1122.22 2768.37 1122.22" stroke="#000000" stroke-width="4.58333" stroke-linejoin="round" stroke-miterlimit="10" fill="none" fill-rule="evenodd"/><path d="M2244.1 1641.9 2768.37 1641.9" stroke="#000000" stroke-width="4.58333" stroke-linejoin="round" stroke-miterlimit="10" fill="none" fill-rule="evenodd"/><text font-family="Times New Roman,Times New Roman_MSFontService,sans-serif" font-weight="400" font-size="73" transform="matrix(1 0 0 1 2293.02 1214)">0<tspan font-size="73" x="129.921" y="0">1</tspan><tspan font-size="73" x="259.843" y="0">0</tspan><tspan font-size="73" x="389.764" y="0">0</tspan><tspan font-size="73" x="0" y="130">1</tspan><tspan font-size="73" x="129.921" y="130">0</tspan><tspan font-size="73" x="259.843" y="130">0</tspan><tspan font-size="73" x="389.764" y="130">0</tspan><tspan font-size="73" x="0" y="260">0</tspan><tspan font-size="73" x="129.921" y="260">0</tspan><tspan font-size="73" x="259.843" y="260">0</tspan><tspan font-size="73" x="389.764" y="260">0</tspan><tspan font-size="73" x="0" y="390">0</tspan><tspan font-size="73" x="129.921" y="390">0</tspan><tspan font-size="73" x="259.843" y="390">0</tspan><tspan font-size="73" x="389.764" y="390">0</tspan></text><path d="M2211.29 1163.9 2341.21 1163.9 2341.21 1293.83 2211.29 1293.83Z" fill="#E9EBF5" fill-rule="evenodd"/><path d="M2341.21 1163.9 2471.13 1163.9 2471.13 1293.83 2341.21 1293.83Z" fill="#E9EBF5" fill-rule="evenodd"/><path d="M2471.13 1163.9 2601.05 1163.9 2601.05 1293.83 2471.13 1293.83Z" fill="#E9EBF5" fill-rule="evenodd"/><path d="M2601.05 1163.9 2730.97 1163.9 2730.97 1293.83 2601.05 1293.83Z" fill="#E9EBF5" fill-rule="evenodd"/><path d="M2211.29 1293.83 2341.21 1293.83 2341.21 1423.75 2211.29 1423.75Z" fill="#CFD5EA" fill-rule="evenodd"/><path d="M2341.21 1293.83 2471.13 1293.83 2471.13 1423.75 2341.21 1423.75Z" fill="#CFD5EA" fill-rule="evenodd"/><path d="M2471.13 1293.83 2601.05 1293.83 2601.05 1423.75 2471.13 1423.75Z" fill="#CFD5EA" fill-rule="evenodd"/><path d="M2601.05 1293.83 2730.97 1293.83 2730.97 1423.75 2601.05 1423.75Z" fill="#CFD5EA" fill-rule="evenodd"/><path d="M2211.29 1423.75 2341.21 1423.75 2341.21 1553.67 2211.29 1553.67Z" fill="#E9EBF5" fill-rule="evenodd"/><path d="M2341.21 1423.75 2471.13 1423.75 2471.13 1553.67 2341.21 1553.67Z" fill="#E9EBF5" fill-rule="evenodd"/><path d="M2471.13 1423.75 2601.05 1423.75 2601.05 1553.67 2471.13 1553.67Z" fill="#E9EBF5" fill-rule="evenodd"/><path d="M2601.05 1423.75 2730.97 1423.75 2730.97 1553.67 2601.05 1553.67Z" fill="#E9EBF5" fill-rule="evenodd"/><path d="M2211.29 1553.67 2341.21 1553.67 2341.21 1683.59 2211.29 1683.59Z" fill="#CFD5EA" fill-rule="evenodd"/><path d="M2341.21 1553.67 2471.13 1553.67 2471.13 1683.59 2341.21 1683.59Z" fill="#CFD5EA" fill-rule="evenodd"/><path d="M2471.13 1553.67 2601.05 1553.67 2601.05 1683.59 2471.13 1683.59Z" fill="#CFD5EA" fill-rule="evenodd"/><path d="M2601.05 1553.67 2730.97 1553.67 2730.97 1683.59 2601.05 1683.59Z" fill="#CFD5EA" fill-rule="evenodd"/><path d="M2341.21 1161.61 2341.21 1685.88" stroke="#000000" stroke-width="4.58333" stroke-linejoin="round" stroke-miterlimit="10" fill="none" fill-rule="evenodd"/><path d="M2471.13 1161.61 2471.13 1685.88" stroke="#000000" stroke-width="4.58333" stroke-linejoin="round" stroke-miterlimit="10" fill="none" fill-rule="evenodd"/><path d="M2601.05 1161.61 2601.05 1685.88" stroke="#000000" stroke-width="4.58333" stroke-linejoin="round" stroke-miterlimit="10" fill="none" fill-rule="evenodd"/><path d="M2209 1293.83 2733.26 1293.83" stroke="#000000" stroke-width="4.58333" stroke-linejoin="round" stroke-miterlimit="10" fill="none" fill-rule="evenodd"/><path d="M2209 1423.75 2733.26 1423.75" stroke="#000000" stroke-width="4.58333" stroke-linejoin="round" stroke-miterlimit="10" fill="none" fill-rule="evenodd"/><path d="M2209 1553.67 2733.26 1553.67" stroke="#000000" stroke-width="4.58333" stroke-linejoin="round" stroke-miterlimit="10" fill="none" fill-rule="evenodd"/><path d="M2211.29 1161.61 2211.29 1685.88" stroke="#000000" stroke-width="4.58333" stroke-linejoin="round" stroke-miterlimit="10" fill="none" fill-rule="evenodd"/><path d="M2730.97 1161.61 2730.97 1685.88" stroke="#000000" stroke-width="4.58333" stroke-linejoin="round" stroke-miterlimit="10" fill="none" fill-rule="evenodd"/><path d="M2209 1163.9 2733.26 1163.9" stroke="#000000" stroke-width="4.58333" stroke-linejoin="round" stroke-miterlimit="10" fill="none" fill-rule="evenodd"/><path d="M2209 1683.59 2733.26 1683.59" stroke="#000000" stroke-width="4.58333" stroke-linejoin="round" stroke-miterlimit="10" fill="none" fill-rule="evenodd"/><text font-family="Times New Roman,Times New Roman_MSFontService,sans-serif" font-weight="400" font-size="73" transform="matrix(1 0 0 1 2257.91 1256)">0<tspan font-size="73" x="129.921" y="0">1</tspan><tspan font-size="73" x="259.843" y="0">0</tspan><tspan font-size="73" x="389.764" y="0">0</tspan><tspan font-size="73" x="0" y="130">1</tspan><tspan font-size="73" x="129.921" y="130">0</tspan><tspan font-size="73" x="259.843" y="130">0</tspan><tspan font-size="73" x="389.764" y="130">0</tspan><tspan font-size="73" x="0" y="260">0</tspan><tspan font-size="73" x="129.921" y="260">0</tspan><tspan font-size="73" x="259.843" y="260">0</tspan><tspan font-size="73" x="389.764" y="260">0</tspan><tspan font-size="73" x="0" y="390">0</tspan><tspan font-size="73" x="129.921" y="390">0</tspan><tspan font-size="73" x="259.843" y="390">0</tspan><tspan font-size="73" x="389.764" y="390">0</tspan></text><path d="M2177.54 1204.82 2307.47 1204.82 2307.47 1334.74 2177.54 1334.74Z" fill="#E9EBF5" fill-rule="evenodd"/><path d="M2307.47 1204.82 2437.39 1204.82 2437.39 1334.74 2307.47 1334.74Z" fill="#E9EBF5" fill-rule="evenodd"/><path d="M2437.39 1204.82 2567.31 1204.82 2567.31 1334.74 2437.39 1334.74Z" fill="#E9EBF5" fill-rule="evenodd"/><path d="M2567.31 1204.82 2697.23 1204.82 2697.23 1334.74 2567.31 1334.74Z" fill="#E9EBF5" fill-rule="evenodd"/><path d="M2177.54 1334.74 2307.47 1334.74 2307.47 1464.66 2177.54 1464.66Z" fill="#CFD5EA" fill-rule="evenodd"/><path d="M2307.47 1334.74 2437.39 1334.74 2437.39 1464.66 2307.47 1464.66Z" fill="#CFD5EA" fill-rule="evenodd"/><path d="M2437.39 1334.74 2567.31 1334.74 2567.31 1464.66 2437.39 1464.66Z" fill="#CFD5EA" fill-rule="evenodd"/><path d="M2567.31 1334.74 2697.23 1334.74 2697.23 1464.66 2567.31 1464.66Z" fill="#CFD5EA" fill-rule="evenodd"/><path d="M2177.54 1464.66 2307.47 1464.66 2307.47 1594.58 2177.54 1594.58Z" fill="#E9EBF5" fill-rule="evenodd"/><path d="M2307.47 1464.66 2437.39 1464.66 2437.39 1594.58 2307.47 1594.58Z" fill="#E9EBF5" fill-rule="evenodd"/><path d="M2437.39 1464.66 2567.31 1464.66 2567.31 1594.58 2437.39 1594.58Z" fill="#E9EBF5" fill-rule="evenodd"/><path d="M2567.31 1464.66 2697.23 1464.66 2697.23 1594.58 2567.31 1594.58Z" fill="#E9EBF5" fill-rule="evenodd"/><path d="M2177.54 1594.58 2307.47 1594.58 2307.47 1724.51 2177.54 1724.51Z" fill="#CFD5EA" fill-rule="evenodd"/><path d="M2307.47 1594.58 2437.39 1594.58 2437.39 1724.51 2307.47 1724.51Z" fill="#CFD5EA" fill-rule="evenodd"/><path d="M2437.39 1594.58 2567.31 1594.58 2567.31 1724.51 2437.39 1724.51Z" fill="#CFD5EA" fill-rule="evenodd"/><path d="M2567.31 1594.58 2697.23 1594.58 2697.23 1724.51 2567.31 1724.51Z" fill="#CFD5EA" fill-rule="evenodd"/><path d="M2307.47 1202.53 2307.47 1726.8" stroke="#000000" stroke-width="4.58333" stroke-linejoin="round" stroke-miterlimit="10" fill="none" fill-rule="evenodd"/><path d="M2437.39 1202.53 2437.39 1726.8" stroke="#000000" stroke-width="4.58333" stroke-linejoin="round" stroke-miterlimit="10" fill="none" fill-rule="evenodd"/><path d="M2567.31 1202.53 2567.31 1726.8" stroke="#000000" stroke-width="4.58333" stroke-linejoin="round" stroke-miterlimit="10" fill="none" fill-rule="evenodd"/><path d="M2175.25 1334.74 2699.52 1334.74" stroke="#000000" stroke-width="4.58333" stroke-linejoin="round" stroke-miterlimit="10" fill="none" fill-rule="evenodd"/><path d="M2175.25 1464.66 2699.52 1464.66" stroke="#000000" stroke-width="4.58333" stroke-linejoin="round" stroke-miterlimit="10" fill="none" fill-rule="evenodd"/><path d="M2175.25 1594.58 2699.52 1594.58" stroke="#000000" stroke-width="4.58333" stroke-linejoin="round" stroke-miterlimit="10" fill="none" fill-rule="evenodd"/><path d="M2177.54 1202.53 2177.54 1726.8" stroke="#000000" stroke-width="4.58333" stroke-linejoin="round" stroke-miterlimit="10" fill="none" fill-rule="evenodd"/><path d="M2697.23 1202.53 2697.23 1726.8" stroke="#000000" stroke-width="4.58333" stroke-linejoin="round" stroke-miterlimit="10" fill="none" fill-rule="evenodd"/><path d="M2175.25 1204.82 2699.52 1204.82" stroke="#000000" stroke-width="4.58333" stroke-linejoin="round" stroke-miterlimit="10" fill="none" fill-rule="evenodd"/><path d="M2175.25 1724.51 2699.52 1724.51" stroke="#000000" stroke-width="4.58333" stroke-linejoin="round" stroke-miterlimit="10" fill="none" fill-rule="evenodd"/><text font-family="Times New Roman,Times New Roman_MSFontService,sans-serif" font-weight="400" font-size="73" transform="matrix(1 0 0 1 2224.17 1297)">0<tspan font-size="73" x="129.921" y="0">1</tspan><tspan font-size="73" x="259.843" y="0">0</tspan><tspan font-size="73" x="389.764" y="0">0</tspan><tspan font-size="73" x="0" y="130">1</tspan><tspan font-size="73" x="129.921" y="130">0</tspan><tspan font-size="73" x="259.843" y="130">0</tspan><tspan font-size="73" x="389.764" y="130">0</tspan><tspan font-size="73" x="0" y="260">0</tspan><tspan font-size="73" x="129.921" y="260">0</tspan><tspan font-size="73" x="259.843" y="260">0</tspan><tspan font-size="73" x="389.764" y="260">0</tspan><tspan font-size="73" x="0" y="390">0</tspan><tspan font-size="73" x="129.921" y="390">0</tspan><tspan font-size="73" x="259.843" y="390">0</tspan><tspan font-size="73" x="389.764" y="390">0</tspan></text><path d="M1.69203-1.54557 133.457 142.706 130.073 145.797-1.69203 1.54557ZM131.765 144.252 135.735 128.21 144.13 157.788 115.431 146.757Z" transform="matrix(1 0 0 -1 2722.5 1734.29)"/><text font-family="Times New Roman,Times New Roman_MSFontService,sans-serif" font-weight="400" font-size="50" transform="matrix(0.671054 -0.741409 0.741409 0.671054 2802.16 1764)">Channel</text><text font-family="Times New Roman,Times New Roman_MSFontService,sans-serif" font-weight="400" font-size="64" transform="matrix(1 0 0 1 2113.6 1224)">S<tspan font-size="64" x="41.7131" y="-56">D</tspan><tspan font-size="64" x="90.4531" y="-102">T</tspan><tspan font-size="64" x="123.572" y="-155">A</tspan><tspan font-size="64" x="167.35" y="-205">L</tspan><tspan font-size="46" x="292.69" y="-336">To Pixel</tspan><tspan font-size="46" x="-569.11" y="-336">To Graph</tspan></text><path d="M1515.5 1376C1534.55 1376 1550 1391.67 1550 1411 1550 1430.33 1534.55 1446 1515.5 1446 1496.45 1446 1481 1430.33 1481 1411 1481 1391.67 1496.45 1376 1515.5 1376Z" stroke="#000000" stroke-width="13.75" stroke-miterlimit="8" fill="#FFC000" fill-rule="evenodd"/><path d="M1612.5 1249C1631.55 1249 1647 1264.45 1647 1283.5 1647 1302.55 1631.55 1318 1612.5 1318 1593.45 1318 1578 1302.55 1578 1283.5 1578 1264.45 1593.45 1249 1612.5 1249Z" stroke="#000000" stroke-width="13.75" stroke-miterlimit="8" fill="#92D050" fill-rule="evenodd"/><path d="M1492 1548C1511.33 1548 1527 1563.45 1527 1582.5 1527 1601.55 1511.33 1617 1492 1617 1472.67 1617 1457 1601.55 1457 1582.5 1457 1563.45 1472.67 1548 1492 1548Z" stroke="#000000" stroke-width="13.75" stroke-miterlimit="8" fill="#92D050" fill-rule="evenodd"/><path d="M1643 1476C1662.33 1476 1678 1491.67 1678 1511 1678 1530.33 1662.33 1546 1643 1546 1623.67 1546 1608 1530.33 1608 1511 1608 1491.67 1623.67 1476 1643 1476Z" stroke="#000000" stroke-width="13.75" stroke-miterlimit="8" fill="#FF0000" fill-rule="evenodd" fill-opacity="0.501961"/><path d="M1754.5 1601C1773.55 1601 1789 1616.45 1789 1635.5 1789 1654.55 1773.55 1670 1754.5 1670 1735.45 1670 1720 1654.55 1720 1635.5 1720 1616.45 1735.45 1601 1754.5 1601Z" stroke="#7F7F7F" stroke-width="13.75" stroke-miterlimit="8" fill="#FFFFFF" fill-rule="evenodd"/><path d="M1368.5 1436C1387.55 1436 1403 1451.45 1403 1470.5 1403 1489.55 1387.55 1505 1368.5 1505 1349.45 1505 1334 1489.55 1334 1470.5 1334 1451.45 1349.45 1436 1368.5 1436Z" stroke="#7F7F7F" stroke-width="13.75" stroke-miterlimit="8" fill="#FFFFFF" fill-rule="evenodd"/><path d="M1745.5 1141C1764.55 1141 1780 1156.45 1780 1175.5 1780 1194.55 1764.55 1210 1745.5 1210 1726.45 1210 1711 1194.55 1711 1175.5 1711 1156.45 1726.45 1141 1745.5 1141Z" stroke="#000000" stroke-width="13.75" stroke-miterlimit="8" fill="#FF0000" fill-rule="evenodd" fill-opacity="0.501961"/><path d="M1570.5 1084C1589.55 1084 1605 1099.45 1605 1118.5 1605 1137.55 1589.55 1153 1570.5 1153 1551.45 1153 1536 1137.55 1536 1118.5 1536 1099.45 1551.45 1084 1570.5 1084Z" stroke="#000000" stroke-width="13.75" stroke-miterlimit="8" fill="#FF0000" fill-rule="evenodd" fill-opacity="0.501961"/><path d="M1423.5 1191C1442.55 1191 1458 1206.45 1458 1225.5 1458 1244.55 1442.55 1260 1423.5 1260 1404.45 1260 1389 1244.55 1389 1225.5 1389 1206.45 1404.45 1191 1423.5 1191Z" stroke="#000000" stroke-width="13.75" stroke-miterlimit="8" fill="#92D050" fill-rule="evenodd"/><path d="M1423.5 1740C1442.55 1740 1458 1755.45 1458 1774.5 1458 1793.55 1442.55 1809 1423.5 1809 1404.45 1809 1389 1793.55 1389 1774.5 1389 1755.45 1404.45 1740 1423.5 1740Z" stroke="#7F7F7F" stroke-width="13.75" stroke-miterlimit="8" fill="#FFFFFF" fill-rule="evenodd"/><path d="M1921.5 1119C1940.55 1119 1956 1134.45 1956 1153.5 1956 1172.55 1940.55 1188 1921.5 1188 1902.45 1188 1887 1172.55 1887 1153.5 1887 1134.45 1902.45 1119 1921.5 1119Z" stroke="#7F7F7F" stroke-width="13.75" stroke-miterlimit="8" fill="#FFFFFF" fill-rule="evenodd"/><path d="M1573.5 1671C1592.55 1671 1608 1686.45 1608 1705.5 1608 1724.55 1592.55 1740 1573.5 1740 1554.45 1740 1539 1724.55 1539 1705.5 1539 1686.45 1554.45 1671 1573.5 1671Z" stroke="#7F7F7F" stroke-width="13.75" stroke-miterlimit="8" fill="#FFFFFF" fill-rule="evenodd"/><path d="M1491 970C1510.33 970 1526 985.446 1526 1004.5 1526 1023.55 1510.33 1039 1491 1039 1471.67 1039 1456 1023.55 1456 1004.5 1456 985.446 1471.67 970 1491 970Z" stroke="#7F7F7F" stroke-width="13.75" stroke-miterlimit="8" fill="#FFFFFF" fill-rule="evenodd"/><path d="M1686 965C1705.33 965 1721 980.446 1721 999.5 1721 1018.55 1705.33 1034 1686 1034 1666.67 1034 1651 1018.55 1651 999.5 1651 980.446 1666.67 965 1686 965Z" stroke="#7F7F7F" stroke-width="13.75" stroke-miterlimit="8" fill="#FFFFFF" fill-rule="evenodd"/><path d="M1539.79 1530.87 1546.7 1543.99 1599.82 1516.02 1613.64 1542.27 1560.51 1570.24 1567.42 1583.36 1527.36 1570.93Z" fill="#FF7F7F" fill-rule="evenodd"/><path d="M1527.3 1337.72 1538.04 1347.94 1579.29 1304.61 1600.77 1325.07 1559.52 1368.39 1570.27 1378.62 1528.33 1379.65Z" fill="#92D050" fill-rule="evenodd"/><path d="M1542.08 1480.94 1527.43 1478.66 1516.7 1547.91 1487.39 1543.37 1498.12 1474.12 1483.46 1471.85 1517.31 1447.08Z" fill="#92D050" fill-rule="evenodd"/><path d="M1649.79 1217.73 1659.33 1229.09 1705.29 1190.47 1724.37 1213.18 1678.41 1251.8 1687.95 1263.15 1646.16 1259.52Z" fill="#FF7F7F" fill-rule="evenodd"/><path d="M1461.72 1355.57 1474.86 1348.7 1430.75 1264.36 1457.03 1250.61 1501.15 1334.95 1514.29 1328.08 1501.75 1368.11Z" fill="#92D050" fill-rule="evenodd"/><path d="M0 0 119.174 0.588976" stroke="#A6A6A6" stroke-width="13.75" stroke-miterlimit="8" fill="none" fill-rule="evenodd" transform="matrix(-1 0 0 1 1647.17 1004)"/><path d="M1686 1034 1720.85 1150.73" stroke="#A6A6A6" stroke-width="13.75" stroke-miterlimit="8" fill="none" fill-rule="evenodd"/><path d="M1784 1166.87 1881.87 1156" stroke="#A6A6A6" stroke-width="13.75" stroke-miterlimit="8" fill="none" fill-rule="evenodd"/><path d="M1721.81 1657 1610 1685.79" stroke="#A6A6A6" stroke-width="13.75" stroke-miterlimit="8" fill="none" fill-rule="evenodd"/><path d="M1481.53 1623 1437 1739.93" stroke="#A6A6A6" stroke-width="13.75" stroke-miterlimit="8" fill="none" fill-rule="evenodd"/><path d="M1467.8 1557.5 1393 1495" stroke="#A6A6A6" stroke-width="13.75" stroke-miterlimit="8" fill="none" fill-rule="evenodd"/><path d="M1675 1538 1733.46 1605.29" stroke="#A6A6A6" stroke-width="13.75" stroke-miterlimit="8" fill="none" fill-rule="evenodd"/><path d="M1460.26 1162.91 1469.32 1174.66 1527.74 1129.64 1545.84 1153.13 1487.42 1198.15 1496.48 1209.9 1454.88 1204.51Z" fill="#FF7F7F" fill-rule="evenodd"/><path d="M2.29155-0.0229808 4.51919 222.108-0.0639139 222.154-2.29155 0.0229808ZM2.22764 222.131 15.885 212.827 2.41148 240.463-11.6136 213.103Z" transform="matrix(-1 0 0 1 1539.91 1814.5)"/><path d="M2.29155-0.0229808 4.51919 222.108-0.0639139 222.154-2.29155 0.0229808ZM2.22764 222.131 15.885 212.827 2.41148 240.463-11.6136 213.103Z" transform="matrix(-1 0 0 1 2437.91 1806.5)"/><text font-family="Times New Roman,Times New Roman_MSFontService,sans-serif" font-weight="400" font-size="46" transform="matrix(1 0 0 1 1587.88 1938)">Relation Graph Convolution etc.<tspan font-size="46" x="-348.721" y="212">Compound Graph Representation</tspan><tspan font-size="46" x="914.204" y="-7">Swim Transformer etc.</tspan><tspan font-size="46" x="563.168" y="219">Compound Pixel Representation</tspan></text></g></svg>